<svg width="229" height="175" viewBox="0 0 229 175" fill="none" xmlns="http://www.w3.org/2000/svg">
<g clip-path="url(#clip0_278_49)">
<path d="M-49.4375 23.1734C-41.4092 23.1734 -37.4183 28.0862 -31.5711 36.1505C-25.7239 44.2149 -19.3198 52.9281 -6.14047 52.9281C7.03891 52.9281 13.5358 44.0295 19.2437 36.1505C24.9517 28.2716 29.0819 23.1734 37.1566 23.1734C45.2312 23.1734 49.2222 28.0862 55.0694 36.1505C60.9166 44.2149 67.2742 52.9281 80.4536 52.9281C93.633 52.9281 100.13 44.0295 105.884 36.1505C111.639 28.2716 115.722 23.1734 123.751 23.1734C131.779 23.1734 135.816 28.0862 141.71 36.1505C147.603 44.2149 153.915 52.9281 167.094 52.9281C180.273 52.9281 186.817 44.0295 192.525 36.1505C198.233 28.2716 202.363 23.1734 210.438 23.1734C211.668 23.1734 212.849 22.6851 213.719 21.816C214.589 20.9468 215.078 19.7679 215.078 18.5387C215.078 17.3095 214.589 16.1307 213.719 15.2615C212.849 14.3923 211.668 13.9041 210.438 13.9041C197.258 13.9041 190.761 22.8026 185.007 30.6816C179.253 38.5606 175.169 43.6587 167.094 43.6587C159.019 43.6587 155.028 38.746 149.181 30.6816C143.334 22.6173 136.976 13.9041 123.751 13.9041C110.525 13.9041 104.074 22.8026 98.3664 30.6816C92.6584 38.5606 88.5283 43.6587 80.5 43.6587C72.4717 43.6587 68.4808 38.746 62.6336 30.6816C56.7864 22.6173 50.3359 13.9041 37.1566 13.9041C23.9772 13.9041 17.4803 22.8026 11.7723 30.6816C6.06438 38.5606 1.88781 43.6587 -6.14047 43.6587C-14.1688 43.6587 -18.2061 38.746 -24.0533 30.6816C-29.9005 22.6173 -36.2581 13.9041 -49.4375 13.9041C-50.6683 13.9041 -51.8486 14.3923 -52.7189 15.2615C-53.5892 16.1307 -54.0781 17.3095 -54.0781 18.5387C-54.0781 19.7679 -53.5892 20.9468 -52.7189 21.816C-51.8486 22.6851 -50.6683 23.1734 -49.4375 23.1734ZM210.438 71.3278C197.258 71.3278 190.761 80.2728 185.007 88.1517C179.253 96.0307 175.169 101.129 167.094 101.129C159.019 101.129 155.028 96.1697 149.181 88.1517C143.334 80.1337 136.976 71.3278 123.751 71.3278C110.525 71.3278 104.074 80.2728 98.3664 88.059C92.6584 95.8453 88.5283 101.036 80.4536 101.036C72.3789 101.036 68.4344 96.1697 62.5872 88.059C56.74 79.9483 50.3359 71.2351 37.1566 71.2351C23.9772 71.2351 17.4803 80.2728 11.7723 88.059C6.06438 95.8453 1.88781 101.036 -6.14047 101.036C-14.1688 101.036 -18.2061 96.077 -24.0533 88.059C-29.9005 80.041 -36.2581 71.3278 -49.4375 71.3278C-50.6683 71.3278 -51.8486 71.8161 -52.7189 72.6853C-53.5892 73.5545 -54.0781 74.7333 -54.0781 75.9625C-54.0781 77.1917 -53.5892 78.3705 -52.7189 79.2397C-51.8486 80.1089 -50.6683 80.5972 -49.4375 80.5972C-41.4092 80.5972 -37.4183 85.5563 -31.5711 93.5743C-25.7239 101.592 -19.3198 110.398 -6.14047 110.398C7.03891 110.398 13.5358 101.453 19.2437 93.5743C24.9517 85.6953 29.0819 80.5972 37.1566 80.5972C45.2312 80.5972 49.2222 85.5563 55.0694 93.5743C60.9166 101.592 67.2742 110.398 80.4536 110.398C93.633 110.398 100.13 101.453 105.884 93.5743C111.639 85.6953 115.722 80.5972 123.751 80.5972C131.779 80.5972 135.816 85.5563 141.71 93.5743C147.603 101.592 153.915 110.398 167.094 110.398C180.273 110.398 186.817 101.453 192.525 93.5743C198.233 85.6953 202.363 80.5972 210.438 80.5972C211.668 80.5972 212.849 80.1089 213.719 79.2397C214.589 78.3705 215.078 77.1917 215.078 75.9625C215.078 74.7333 214.589 73.5545 213.719 72.6853C212.849 71.8161 211.668 71.3278 210.438 71.3278ZM210.438 128.798C197.258 128.798 190.761 137.697 185.007 145.575C179.253 153.454 175.169 158.553 167.094 158.553C159.019 158.553 155.028 153.64 149.181 145.575C143.334 137.511 136.976 128.798 123.751 128.798C110.525 128.798 104.074 137.697 98.3664 145.575C92.6584 153.454 88.5283 158.553 80.4536 158.553C72.3789 158.553 68.4344 153.64 62.5872 145.575C56.74 137.511 50.3359 128.798 37.1566 128.798C23.9772 128.798 17.4803 137.697 11.7723 145.575C6.06438 153.454 1.88781 158.553 -6.14047 158.553C-14.1688 158.553 -18.2061 153.64 -24.0533 145.575C-29.9005 137.511 -36.2581 128.798 -49.4375 128.798C-50.6683 128.798 -51.8486 129.286 -52.7189 130.155C-53.5892 131.025 -54.0781 132.203 -54.0781 133.433C-54.0781 134.662 -53.5892 135.841 -52.7189 136.71C-51.8486 137.579 -50.6683 138.067 -49.4375 138.067C-41.4092 138.067 -37.4183 142.98 -31.5711 151.044C-25.7239 159.109 -19.3198 167.822 -6.14047 167.822C7.03891 167.822 13.5358 158.923 19.2437 151.044C24.9517 143.165 29.0819 138.067 37.1566 138.067C45.2312 138.067 49.2222 142.98 55.0694 151.044C60.9166 159.109 67.2742 167.822 80.4536 167.822C93.633 167.822 100.13 158.923 105.884 151.044C111.639 143.165 115.722 138.067 123.751 138.067C131.779 138.067 135.816 142.98 141.71 151.044C147.603 159.109 153.915 167.822 167.094 167.822C180.273 167.822 186.817 158.923 192.525 151.044C198.233 143.165 202.363 138.067 210.438 138.067C211.668 138.067 212.849 137.579 213.719 136.71C214.589 135.841 215.078 134.662 215.078 133.433C215.078 132.203 214.589 131.025 213.719 130.155C212.849 129.286 211.668 128.798 210.438 128.798ZM210.438 186.222C197.258 186.222 190.761 195.167 185.007 203.046C179.253 210.925 175.169 216.023 167.094 216.023C159.019 216.023 155.028 211.064 149.181 203.046C143.334 195.028 136.976 186.222 123.751 186.222C110.525 186.222 104.074 195.167 98.3664 203.046C92.6584 210.925 88.5283 216.023 80.4536 216.023C72.3789 216.023 68.4344 211.064 62.5872 203.046C56.74 195.028 50.3359 186.222 37.1566 186.222C23.9772 186.222 17.4803 195.167 11.7723 203.046C6.06438 210.925 1.88781 216.023 -6.14047 216.023C-14.1688 216.023 -18.2061 211.064 -24.0533 203.046C-29.9005 195.028 -36.2581 186.222 -49.4375 186.222C-50.6683 186.222 -51.8486 186.71 -52.7189 187.579C-53.5892 188.448 -54.0781 189.627 -54.0781 190.856C-54.0781 192.086 -53.5892 193.264 -52.7189 194.134C-51.8486 195.003 -50.6683 195.491 -49.4375 195.491C-41.4092 195.491 -37.4183 200.45 -31.5711 208.468C-25.7239 216.486 -19.3198 225.292 -6.14047 225.292C7.03891 225.292 13.5358 216.347 19.2437 208.561C24.9517 200.775 29.0819 195.584 37.1566 195.584C45.2312 195.584 49.2222 200.543 55.0694 208.561C60.9166 216.579 67.2742 225.385 80.4536 225.385C93.633 225.385 100.13 216.44 105.884 208.561C111.639 200.682 115.722 195.584 123.751 195.584C131.779 195.584 135.816 200.543 141.71 208.561C147.603 216.579 153.915 225.385 167.094 225.385C180.273 225.385 186.817 216.44 192.525 208.561C198.233 200.682 202.363 195.584 210.438 195.584C211.668 195.584 212.849 195.095 213.719 194.226C214.589 193.357 215.078 192.178 215.078 190.949C215.078 189.72 214.589 188.541 213.719 187.672C212.849 186.803 211.668 186.314 210.438 186.314V186.222ZM210.438 243.692C197.258 243.692 190.761 252.59 185.007 260.469C179.253 268.348 175.169 273.446 167.094 273.446C159.019 273.446 155.028 268.534 149.181 260.469C143.334 252.405 136.976 243.692 123.751 243.692C110.525 243.692 104.074 252.59 98.3664 260.469C92.6584 268.348 88.5283 273.446 80.5 273.446C72.4717 273.446 68.4808 268.534 62.6336 260.469C56.7864 252.405 50.3823 243.692 37.203 243.692C24.0236 243.692 17.5267 252.59 11.8188 260.469C6.11079 268.348 1.88781 273.446 -6.14047 273.446C-14.1688 273.446 -18.2061 268.534 -24.0533 260.469C-29.9005 252.405 -36.2581 243.692 -49.4375 243.692C-50.6683 243.692 -51.8486 244.18 -52.7189 245.049C-53.5892 245.918 -54.0781 247.097 -54.0781 248.326C-54.0781 249.556 -53.5892 250.735 -52.7189 251.604C-51.8486 252.473 -50.6683 252.961 -49.4375 252.961C-41.4092 252.961 -37.4183 257.874 -31.5711 265.938C-25.7239 274.003 -19.3198 282.716 -6.14047 282.716C7.03891 282.716 13.5358 273.817 19.2437 265.938C24.9517 258.059 29.0819 252.961 37.1566 252.961C45.2312 252.961 49.2222 257.874 55.0694 265.938C60.9166 274.003 67.2742 282.716 80.5 282.716C93.7258 282.716 100.176 273.817 105.931 265.938C111.685 258.059 115.769 252.961 123.797 252.961C131.825 252.961 135.863 257.874 141.756 265.938C147.65 274.003 153.915 282.716 167.094 282.716C180.273 282.716 186.817 273.817 192.525 265.938C198.233 258.059 202.363 252.961 210.438 252.961C211.668 252.961 212.849 252.473 213.719 251.604C214.589 250.735 215.078 249.556 215.078 248.326C215.078 247.097 214.589 245.918 213.719 245.049C212.849 244.18 211.668 243.692 210.438 243.692Z" fill="black" fill-opacity="0.47"/>
</g>
<defs>
<clipPath id="clip0_278_49">
<rect width="297" height="175" fill="white" transform="translate(-68)"/>
</clipPath>
</defs>
</svg>
