<svg width="240" height="185" viewBox="0 0 240 185" fill="none" xmlns="http://www.w3.org/2000/svg">
<g opacity="0.2">
<circle cx="1.5" cy="1.5" r="1.5" transform="rotate(180 1.5 1.5)" fill="#D9D9D9"/>
<circle cx="14.5" cy="1.5" r="1.5" transform="rotate(180 14.5 1.5)" fill="#D9D9D9"/>
<circle cx="27.5" cy="1.5" r="1.5" transform="rotate(180 27.5 1.5)" fill="#D9D9D9"/>
<circle cx="40.5" cy="1.5" r="1.5" transform="rotate(180 40.5 1.5)" fill="#D9D9D9"/>
<circle cx="53.5" cy="1.5" r="1.5" transform="rotate(180 53.5 1.5)" fill="#D9D9D9"/>
<circle cx="66.5" cy="1.5" r="1.5" transform="rotate(180 66.5 1.5)" fill="#D9D9D9"/>
<circle cx="79.5" cy="1.5" r="1.5" transform="rotate(180 79.5 1.5)" fill="#D9D9D9"/>
<circle cx="92.5" cy="1.5" r="1.5" transform="rotate(180 92.5 1.5)" fill="#D9D9D9"/>
<circle cx="105.5" cy="1.5" r="1.5" transform="rotate(180 105.5 1.5)" fill="#D9D9D9"/>
<circle cx="118.5" cy="1.5" r="1.5" transform="rotate(180 118.5 1.5)" fill="#D9D9D9"/>
<circle cx="131.5" cy="1.5" r="1.5" transform="rotate(180 131.5 1.5)" fill="#D9D9D9"/>
<circle cx="144.5" cy="1.5" r="1.5" transform="rotate(180 144.5 1.5)" fill="#D9D9D9"/>
<circle cx="157.5" cy="1.5" r="1.5" transform="rotate(180 157.5 1.5)" fill="#D9D9D9"/>
<circle cx="170.5" cy="1.5" r="1.5" transform="rotate(180 170.5 1.5)" fill="#D9D9D9"/>
<circle cx="183.5" cy="1.5" r="1.5" transform="rotate(180 183.5 1.5)" fill="#D9D9D9"/>
<circle cx="196.5" cy="1.5" r="1.5" transform="rotate(180 196.5 1.5)" fill="#D9D9D9"/>
<circle cx="209.5" cy="1.5" r="1.5" transform="rotate(180 209.5 1.5)" fill="#D9D9D9"/>
<circle cx="222.5" cy="1.5" r="1.5" transform="rotate(180 222.5 1.5)" fill="#D9D9D9"/>
<circle cx="235.5" cy="1.5" r="1.5" transform="rotate(180 235.5 1.5)" fill="#D9D9D9"/>
<circle cx="1.5" cy="14.5" r="1.5" transform="rotate(180 1.5 14.5)" fill="#D9D9D9"/>
<circle cx="14.5" cy="14.5" r="1.5" transform="rotate(180 14.5 14.5)" fill="#D9D9D9"/>
<circle cx="27.5" cy="14.5" r="1.5" transform="rotate(180 27.5 14.5)" fill="#D9D9D9"/>
<circle cx="40.5" cy="14.5" r="1.5" transform="rotate(180 40.5 14.5)" fill="#D9D9D9"/>
<circle cx="53.5" cy="14.5" r="1.5" transform="rotate(180 53.5 14.5)" fill="#D9D9D9"/>
<circle cx="66.5" cy="14.5" r="1.5" transform="rotate(180 66.5 14.5)" fill="#D9D9D9"/>
<circle cx="79.5" cy="14.5" r="1.5" transform="rotate(180 79.5 14.5)" fill="#D9D9D9"/>
<circle cx="92.5" cy="14.5" r="1.5" transform="rotate(180 92.5 14.5)" fill="#D9D9D9"/>
<circle cx="105.5" cy="14.5" r="1.5" transform="rotate(180 105.5 14.5)" fill="#D9D9D9"/>
<circle cx="118.5" cy="14.5" r="1.5" transform="rotate(180 118.5 14.5)" fill="#D9D9D9"/>
<circle cx="131.5" cy="14.5" r="1.5" transform="rotate(180 131.5 14.5)" fill="#D9D9D9"/>
<circle cx="144.5" cy="14.5" r="1.5" transform="rotate(180 144.5 14.5)" fill="#D9D9D9"/>
<circle cx="157.5" cy="14.5" r="1.5" transform="rotate(180 157.5 14.5)" fill="#D9D9D9"/>
<circle cx="170.5" cy="14.5" r="1.5" transform="rotate(180 170.5 14.5)" fill="#D9D9D9"/>
<circle cx="183.5" cy="14.5" r="1.5" transform="rotate(180 183.5 14.5)" fill="#D9D9D9"/>
<circle cx="196.5" cy="14.5" r="1.5" transform="rotate(180 196.5 14.5)" fill="#D9D9D9"/>
<circle cx="209.5" cy="14.5" r="1.5" transform="rotate(180 209.5 14.5)" fill="#D9D9D9"/>
<circle cx="222.5" cy="14.5" r="1.5" transform="rotate(180 222.5 14.5)" fill="#D9D9D9"/>
<circle cx="235.5" cy="14.5" r="1.5" transform="rotate(180 235.5 14.5)" fill="#D9D9D9"/>
<circle cx="1.5" cy="27.5" r="1.5" transform="rotate(180 1.5 27.5)" fill="#D9D9D9"/>
<circle cx="14.5" cy="27.5" r="1.5" transform="rotate(180 14.5 27.5)" fill="#D9D9D9"/>
<circle cx="27.5" cy="27.5" r="1.5" transform="rotate(180 27.5 27.5)" fill="#D9D9D9"/>
<circle cx="40.5" cy="27.5" r="1.5" transform="rotate(180 40.5 27.5)" fill="#D9D9D9"/>
<circle cx="53.5" cy="27.5" r="1.5" transform="rotate(180 53.5 27.5)" fill="#D9D9D9"/>
<circle cx="66.5" cy="27.5" r="1.5" transform="rotate(180 66.5 27.5)" fill="#D9D9D9"/>
<circle cx="79.5" cy="27.5" r="1.5" transform="rotate(180 79.5 27.5)" fill="#D9D9D9"/>
<circle cx="92.5" cy="27.5" r="1.5" transform="rotate(180 92.5 27.5)" fill="#D9D9D9"/>
<circle cx="105.5" cy="27.5" r="1.5" transform="rotate(180 105.5 27.5)" fill="#D9D9D9"/>
<circle cx="118.5" cy="27.5" r="1.5" transform="rotate(180 118.5 27.5)" fill="#D9D9D9"/>
<circle cx="131.5" cy="27.5" r="1.5" transform="rotate(180 131.5 27.5)" fill="#D9D9D9"/>
<circle cx="144.5" cy="27.5" r="1.5" transform="rotate(180 144.5 27.5)" fill="#D9D9D9"/>
<circle cx="157.5" cy="27.5" r="1.5" transform="rotate(180 157.5 27.5)" fill="#D9D9D9"/>
<circle cx="170.5" cy="27.5" r="1.5" transform="rotate(180 170.5 27.5)" fill="#D9D9D9"/>
<circle cx="183.5" cy="27.5" r="1.5" transform="rotate(180 183.5 27.5)" fill="#D9D9D9"/>
<circle cx="196.5" cy="27.5" r="1.5" transform="rotate(180 196.5 27.5)" fill="#D9D9D9"/>
<circle cx="209.5" cy="27.5" r="1.5" transform="rotate(180 209.5 27.5)" fill="#D9D9D9"/>
<circle cx="222.5" cy="27.5" r="1.5" transform="rotate(180 222.5 27.5)" fill="#D9D9D9"/>
<circle cx="235.5" cy="27.5" r="1.5" transform="rotate(180 235.5 27.5)" fill="#D9D9D9"/>
<circle cx="1.5" cy="40.5" r="1.5" transform="rotate(180 1.5 40.5)" fill="#D9D9D9"/>
<circle cx="14.5" cy="40.5" r="1.5" transform="rotate(180 14.5 40.5)" fill="#D9D9D9"/>
<circle cx="27.5" cy="40.5" r="1.5" transform="rotate(180 27.5 40.5)" fill="#D9D9D9"/>
<circle cx="40.5" cy="40.5" r="1.5" transform="rotate(180 40.5 40.5)" fill="#D9D9D9"/>
<circle cx="53.5" cy="40.5" r="1.5" transform="rotate(180 53.5 40.5)" fill="#D9D9D9"/>
<circle cx="66.5" cy="40.5" r="1.5" transform="rotate(180 66.5 40.5)" fill="#D9D9D9"/>
<circle cx="79.5" cy="40.5" r="1.5" transform="rotate(180 79.5 40.5)" fill="#D9D9D9"/>
<circle cx="92.5" cy="40.5" r="1.5" transform="rotate(180 92.5 40.5)" fill="#D9D9D9"/>
<circle cx="105.5" cy="40.5" r="1.5" transform="rotate(180 105.5 40.5)" fill="#D9D9D9"/>
<circle cx="118.5" cy="40.5" r="1.5" transform="rotate(180 118.5 40.5)" fill="#D9D9D9"/>
<circle cx="131.5" cy="40.5" r="1.5" transform="rotate(180 131.5 40.5)" fill="#D9D9D9"/>
<circle cx="144.5" cy="40.5" r="1.5" transform="rotate(180 144.5 40.5)" fill="#D9D9D9"/>
<circle cx="157.5" cy="40.5" r="1.5" transform="rotate(180 157.5 40.5)" fill="#D9D9D9"/>
<circle cx="170.5" cy="40.5" r="1.5" transform="rotate(180 170.5 40.5)" fill="#D9D9D9"/>
<circle cx="183.5" cy="40.5" r="1.5" transform="rotate(180 183.5 40.5)" fill="#D9D9D9"/>
<circle cx="196.5" cy="40.5" r="1.5" transform="rotate(180 196.5 40.5)" fill="#D9D9D9"/>
<circle cx="209.5" cy="40.5" r="1.5" transform="rotate(180 209.5 40.5)" fill="#D9D9D9"/>
<circle cx="222.5" cy="40.5" r="1.5" transform="rotate(180 222.5 40.5)" fill="#D9D9D9"/>
<circle cx="235.5" cy="40.5" r="1.5" transform="rotate(180 235.5 40.5)" fill="#D9D9D9"/>
<circle cx="1.5" cy="53.5" r="1.5" transform="rotate(180 1.5 53.5)" fill="#D9D9D9"/>
<circle cx="14.5" cy="53.5" r="1.5" transform="rotate(180 14.5 53.5)" fill="#D9D9D9"/>
<circle cx="27.5" cy="53.5" r="1.5" transform="rotate(180 27.5 53.5)" fill="#D9D9D9"/>
<circle cx="40.5" cy="53.5" r="1.5" transform="rotate(180 40.5 53.5)" fill="#D9D9D9"/>
<circle cx="53.5" cy="53.5" r="1.5" transform="rotate(180 53.5 53.5)" fill="#D9D9D9"/>
<circle cx="66.5" cy="53.5" r="1.5" transform="rotate(180 66.5 53.5)" fill="#D9D9D9"/>
<circle cx="79.5" cy="53.5" r="1.5" transform="rotate(180 79.5 53.5)" fill="#D9D9D9"/>
<circle cx="92.5" cy="53.5" r="1.5" transform="rotate(180 92.5 53.5)" fill="#D9D9D9"/>
<circle cx="105.5" cy="53.5" r="1.5" transform="rotate(180 105.5 53.5)" fill="#D9D9D9"/>
<circle cx="118.5" cy="53.5" r="1.5" transform="rotate(180 118.5 53.5)" fill="#D9D9D9"/>
<circle cx="131.5" cy="53.5" r="1.5" transform="rotate(180 131.5 53.5)" fill="#D9D9D9"/>
<circle cx="144.5" cy="53.5" r="1.5" transform="rotate(180 144.5 53.5)" fill="#D9D9D9"/>
<circle cx="157.5" cy="53.5" r="1.5" transform="rotate(180 157.5 53.5)" fill="#D9D9D9"/>
<circle cx="170.5" cy="53.5" r="1.5" transform="rotate(180 170.5 53.5)" fill="#D9D9D9"/>
<circle cx="183.5" cy="53.5" r="1.5" transform="rotate(180 183.5 53.5)" fill="#D9D9D9"/>
<circle cx="196.5" cy="53.5" r="1.5" transform="rotate(180 196.5 53.5)" fill="#D9D9D9"/>
<circle cx="209.5" cy="53.5" r="1.5" transform="rotate(180 209.5 53.5)" fill="#D9D9D9"/>
<circle cx="222.5" cy="53.5" r="1.5" transform="rotate(180 222.5 53.5)" fill="#D9D9D9"/>
<circle cx="235.5" cy="53.5" r="1.5" transform="rotate(180 235.5 53.5)" fill="#D9D9D9"/>
<circle cx="1.5" cy="66.5" r="1.5" transform="rotate(180 1.5 66.5)" fill="#D9D9D9"/>
<circle cx="14.5" cy="66.5" r="1.5" transform="rotate(180 14.5 66.5)" fill="#D9D9D9"/>
<circle cx="27.5" cy="66.5" r="1.5" transform="rotate(180 27.5 66.5)" fill="#D9D9D9"/>
<circle cx="40.5" cy="66.5" r="1.5" transform="rotate(180 40.5 66.5)" fill="#D9D9D9"/>
<circle cx="53.5" cy="66.5" r="1.5" transform="rotate(180 53.5 66.5)" fill="#D9D9D9"/>
<circle cx="66.5" cy="66.5" r="1.5" transform="rotate(180 66.5 66.5)" fill="#D9D9D9"/>
<circle cx="79.5" cy="66.5" r="1.5" transform="rotate(180 79.5 66.5)" fill="#D9D9D9"/>
<circle cx="92.5" cy="66.5" r="1.5" transform="rotate(180 92.5 66.5)" fill="#D9D9D9"/>
<circle cx="105.5" cy="66.5" r="1.5" transform="rotate(180 105.5 66.5)" fill="#D9D9D9"/>
<circle cx="118.5" cy="66.5" r="1.5" transform="rotate(180 118.5 66.5)" fill="#D9D9D9"/>
<circle cx="131.5" cy="66.5" r="1.5" transform="rotate(180 131.5 66.5)" fill="#D9D9D9"/>
<circle cx="144.5" cy="66.5" r="1.5" transform="rotate(180 144.5 66.5)" fill="#D9D9D9"/>
<circle cx="157.5" cy="66.5" r="1.5" transform="rotate(180 157.5 66.5)" fill="#D9D9D9"/>
<circle cx="170.5" cy="66.5" r="1.5" transform="rotate(180 170.5 66.5)" fill="#D9D9D9"/>
<circle cx="183.5" cy="66.5" r="1.5" transform="rotate(180 183.5 66.5)" fill="#D9D9D9"/>
<circle cx="196.5" cy="66.5" r="1.5" transform="rotate(180 196.5 66.5)" fill="#D9D9D9"/>
<circle cx="209.5" cy="66.5" r="1.5" transform="rotate(180 209.5 66.5)" fill="#D9D9D9"/>
<circle cx="222.5" cy="66.5" r="1.5" transform="rotate(180 222.5 66.5)" fill="#D9D9D9"/>
<circle cx="235.5" cy="66.5" r="1.5" transform="rotate(180 235.5 66.5)" fill="#D9D9D9"/>
<circle cx="1.5" cy="79.5" r="1.5" transform="rotate(180 1.5 79.5)" fill="#D9D9D9"/>
<circle cx="14.5" cy="79.5" r="1.5" transform="rotate(180 14.5 79.5)" fill="#D9D9D9"/>
<circle cx="27.5" cy="79.5" r="1.5" transform="rotate(180 27.5 79.5)" fill="#D9D9D9"/>
<circle cx="40.5" cy="79.5" r="1.5" transform="rotate(180 40.5 79.5)" fill="#D9D9D9"/>
<circle cx="53.5" cy="79.5" r="1.5" transform="rotate(180 53.5 79.5)" fill="#D9D9D9"/>
<circle cx="66.5" cy="79.5" r="1.5" transform="rotate(180 66.5 79.5)" fill="#D9D9D9"/>
<circle cx="79.5" cy="79.5" r="1.5" transform="rotate(180 79.5 79.5)" fill="#D9D9D9"/>
<circle cx="92.5" cy="79.5" r="1.5" transform="rotate(180 92.5 79.5)" fill="#D9D9D9"/>
<circle cx="105.5" cy="79.5" r="1.5" transform="rotate(180 105.5 79.5)" fill="#D9D9D9"/>
<circle cx="118.5" cy="79.5" r="1.5" transform="rotate(180 118.5 79.5)" fill="#D9D9D9"/>
<circle cx="131.5" cy="79.5" r="1.5" transform="rotate(180 131.5 79.5)" fill="#D9D9D9"/>
<circle cx="144.5" cy="79.5" r="1.5" transform="rotate(180 144.5 79.5)" fill="#D9D9D9"/>
<circle cx="157.5" cy="79.5" r="1.5" transform="rotate(180 157.5 79.5)" fill="#D9D9D9"/>
<circle cx="170.5" cy="79.5" r="1.5" transform="rotate(180 170.5 79.5)" fill="#D9D9D9"/>
<circle cx="183.5" cy="79.5" r="1.5" transform="rotate(180 183.5 79.5)" fill="#D9D9D9"/>
<circle cx="196.5" cy="79.5" r="1.5" transform="rotate(180 196.5 79.5)" fill="#D9D9D9"/>
<circle cx="209.5" cy="79.5" r="1.5" transform="rotate(180 209.5 79.5)" fill="#D9D9D9"/>
<circle cx="222.5" cy="79.5" r="1.5" transform="rotate(180 222.5 79.5)" fill="#D9D9D9"/>
<circle cx="235.5" cy="79.5" r="1.5" transform="rotate(180 235.5 79.5)" fill="#D9D9D9"/>
<circle cx="1.5" cy="92.5" r="1.5" transform="rotate(180 1.5 92.5)" fill="#D9D9D9"/>
<circle cx="14.5" cy="92.5" r="1.5" transform="rotate(180 14.5 92.5)" fill="#D9D9D9"/>
<circle cx="27.5" cy="92.5" r="1.5" transform="rotate(180 27.5 92.5)" fill="#D9D9D9"/>
<circle cx="40.5" cy="92.5" r="1.5" transform="rotate(180 40.5 92.5)" fill="#D9D9D9"/>
<circle cx="53.5" cy="92.5" r="1.5" transform="rotate(180 53.5 92.5)" fill="#D9D9D9"/>
<circle cx="66.5" cy="92.5" r="1.5" transform="rotate(180 66.5 92.5)" fill="#D9D9D9"/>
<circle cx="79.5" cy="92.5" r="1.5" transform="rotate(180 79.5 92.5)" fill="#D9D9D9"/>
<circle cx="92.5" cy="92.5" r="1.5" transform="rotate(180 92.5 92.5)" fill="#D9D9D9"/>
<circle cx="105.5" cy="92.5" r="1.5" transform="rotate(180 105.5 92.5)" fill="#D9D9D9"/>
<circle cx="118.5" cy="92.5" r="1.5" transform="rotate(180 118.5 92.5)" fill="#D9D9D9"/>
<circle cx="131.5" cy="92.5" r="1.5" transform="rotate(180 131.5 92.5)" fill="#D9D9D9"/>
<circle cx="144.5" cy="92.5" r="1.5" transform="rotate(180 144.5 92.5)" fill="#D9D9D9"/>
<circle cx="157.5" cy="92.5" r="1.5" transform="rotate(180 157.5 92.5)" fill="#D9D9D9"/>
<circle cx="170.5" cy="92.5" r="1.5" transform="rotate(180 170.5 92.5)" fill="#D9D9D9"/>
<circle cx="183.5" cy="92.5" r="1.5" transform="rotate(180 183.5 92.5)" fill="#D9D9D9"/>
<circle cx="196.5" cy="92.5" r="1.5" transform="rotate(180 196.5 92.5)" fill="#D9D9D9"/>
<circle cx="209.5" cy="92.5" r="1.5" transform="rotate(180 209.5 92.5)" fill="#D9D9D9"/>
<circle cx="222.5" cy="92.5" r="1.5" transform="rotate(180 222.5 92.5)" fill="#D9D9D9"/>
<circle cx="235.5" cy="92.5" r="1.5" transform="rotate(180 235.5 92.5)" fill="#D9D9D9"/>
<circle cx="1.5" cy="105.5" r="1.5" transform="rotate(180 1.5 105.5)" fill="#D9D9D9"/>
<circle cx="14.5" cy="105.5" r="1.5" transform="rotate(180 14.5 105.5)" fill="#D9D9D9"/>
<circle cx="27.5" cy="105.5" r="1.5" transform="rotate(180 27.5 105.5)" fill="#D9D9D9"/>
<circle cx="40.5" cy="105.5" r="1.5" transform="rotate(180 40.5 105.5)" fill="#D9D9D9"/>
<circle cx="53.5" cy="105.5" r="1.5" transform="rotate(180 53.5 105.5)" fill="#D9D9D9"/>
<circle cx="66.5" cy="105.5" r="1.5" transform="rotate(180 66.5 105.5)" fill="#D9D9D9"/>
<circle cx="79.5" cy="105.5" r="1.5" transform="rotate(180 79.5 105.5)" fill="#D9D9D9"/>
<circle cx="92.5" cy="105.5" r="1.5" transform="rotate(180 92.5 105.5)" fill="#D9D9D9"/>
<circle cx="105.5" cy="105.5" r="1.5" transform="rotate(180 105.5 105.5)" fill="#D9D9D9"/>
<circle cx="118.5" cy="105.5" r="1.5" transform="rotate(180 118.5 105.5)" fill="#D9D9D9"/>
<circle cx="131.5" cy="105.5" r="1.5" transform="rotate(180 131.5 105.5)" fill="#D9D9D9"/>
<circle cx="144.5" cy="105.5" r="1.5" transform="rotate(180 144.5 105.5)" fill="#D9D9D9"/>
<circle cx="157.5" cy="105.5" r="1.5" transform="rotate(180 157.5 105.5)" fill="#D9D9D9"/>
<circle cx="170.5" cy="105.5" r="1.5" transform="rotate(180 170.5 105.5)" fill="#D9D9D9"/>
<circle cx="183.5" cy="105.5" r="1.5" transform="rotate(180 183.5 105.5)" fill="#D9D9D9"/>
<circle cx="196.5" cy="105.5" r="1.5" transform="rotate(180 196.5 105.5)" fill="#D9D9D9"/>
<circle cx="209.5" cy="105.5" r="1.5" transform="rotate(180 209.5 105.5)" fill="#D9D9D9"/>
<circle cx="222.5" cy="105.5" r="1.5" transform="rotate(180 222.5 105.5)" fill="#D9D9D9"/>
<circle cx="235.5" cy="105.5" r="1.5" transform="rotate(180 235.5 105.5)" fill="#D9D9D9"/>
<circle cx="1.5" cy="118.5" r="1.5" transform="rotate(180 1.5 118.5)" fill="#D9D9D9"/>
<circle cx="14.5" cy="118.5" r="1.5" transform="rotate(180 14.5 118.5)" fill="#D9D9D9"/>
<circle cx="27.5" cy="118.5" r="1.5" transform="rotate(180 27.5 118.5)" fill="#D9D9D9"/>
<circle cx="40.5" cy="118.5" r="1.5" transform="rotate(180 40.5 118.5)" fill="#D9D9D9"/>
<circle cx="53.5" cy="118.5" r="1.5" transform="rotate(180 53.5 118.5)" fill="#D9D9D9"/>
<circle cx="66.5" cy="118.5" r="1.5" transform="rotate(180 66.5 118.5)" fill="#D9D9D9"/>
<circle cx="79.5" cy="118.5" r="1.5" transform="rotate(180 79.5 118.5)" fill="#D9D9D9"/>
<circle cx="92.5" cy="118.5" r="1.5" transform="rotate(180 92.5 118.5)" fill="#D9D9D9"/>
<circle cx="105.5" cy="118.5" r="1.5" transform="rotate(180 105.5 118.5)" fill="#D9D9D9"/>
<circle cx="118.5" cy="118.5" r="1.5" transform="rotate(180 118.5 118.5)" fill="#D9D9D9"/>
<circle cx="131.5" cy="118.5" r="1.5" transform="rotate(180 131.5 118.5)" fill="#D9D9D9"/>
<circle cx="144.5" cy="118.5" r="1.5" transform="rotate(180 144.5 118.5)" fill="#D9D9D9"/>
<circle cx="157.5" cy="118.5" r="1.5" transform="rotate(180 157.5 118.5)" fill="#D9D9D9"/>
<circle cx="170.5" cy="118.5" r="1.5" transform="rotate(180 170.5 118.5)" fill="#D9D9D9"/>
<circle cx="183.5" cy="118.5" r="1.5" transform="rotate(180 183.5 118.5)" fill="#D9D9D9"/>
<circle cx="196.5" cy="118.5" r="1.5" transform="rotate(180 196.5 118.5)" fill="#D9D9D9"/>
<circle cx="209.5" cy="118.5" r="1.5" transform="rotate(180 209.5 118.5)" fill="#D9D9D9"/>
<circle cx="222.5" cy="118.5" r="1.5" transform="rotate(180 222.5 118.5)" fill="#D9D9D9"/>
<circle cx="235.5" cy="118.5" r="1.5" transform="rotate(180 235.5 118.5)" fill="#D9D9D9"/>
<circle cx="1.5" cy="131.5" r="1.5" transform="rotate(180 1.5 131.5)" fill="#D9D9D9"/>
<circle cx="14.5" cy="131.5" r="1.5" transform="rotate(180 14.5 131.5)" fill="#D9D9D9"/>
<circle cx="27.5" cy="131.5" r="1.5" transform="rotate(180 27.5 131.5)" fill="#D9D9D9"/>
<circle cx="40.5" cy="131.5" r="1.5" transform="rotate(180 40.5 131.5)" fill="#D9D9D9"/>
<circle cx="53.5" cy="131.5" r="1.5" transform="rotate(180 53.5 131.5)" fill="#D9D9D9"/>
<circle cx="66.5" cy="131.5" r="1.5" transform="rotate(180 66.5 131.5)" fill="#D9D9D9"/>
<circle cx="79.5" cy="131.5" r="1.5" transform="rotate(180 79.5 131.5)" fill="#D9D9D9"/>
<circle cx="92.5" cy="131.5" r="1.5" transform="rotate(180 92.5 131.5)" fill="#D9D9D9"/>
<circle cx="105.5" cy="131.5" r="1.5" transform="rotate(180 105.5 131.5)" fill="#D9D9D9"/>
<circle cx="118.5" cy="131.5" r="1.5" transform="rotate(180 118.5 131.5)" fill="#D9D9D9"/>
<circle cx="131.5" cy="131.5" r="1.5" transform="rotate(180 131.5 131.5)" fill="#D9D9D9"/>
<circle cx="144.5" cy="131.5" r="1.5" transform="rotate(180 144.5 131.5)" fill="#D9D9D9"/>
<circle cx="157.5" cy="131.5" r="1.5" transform="rotate(180 157.5 131.5)" fill="#D9D9D9"/>
<circle cx="170.5" cy="131.5" r="1.5" transform="rotate(180 170.5 131.5)" fill="#D9D9D9"/>
<circle cx="183.5" cy="131.5" r="1.5" transform="rotate(180 183.5 131.5)" fill="#D9D9D9"/>
<circle cx="196.5" cy="131.5" r="1.5" transform="rotate(180 196.5 131.5)" fill="#D9D9D9"/>
<circle cx="209.5" cy="131.5" r="1.5" transform="rotate(180 209.5 131.5)" fill="#D9D9D9"/>
<circle cx="222.5" cy="131.5" r="1.5" transform="rotate(180 222.5 131.5)" fill="#D9D9D9"/>
<circle cx="235.5" cy="131.5" r="1.5" transform="rotate(180 235.5 131.5)" fill="#D9D9D9"/>
<circle cx="1.5" cy="144.5" r="1.5" transform="rotate(180 1.5 144.5)" fill="#D9D9D9"/>
<circle cx="14.5" cy="144.5" r="1.5" transform="rotate(180 14.5 144.5)" fill="#D9D9D9"/>
<circle cx="27.5" cy="144.5" r="1.5" transform="rotate(180 27.5 144.5)" fill="#D9D9D9"/>
<circle cx="40.5" cy="144.5" r="1.5" transform="rotate(180 40.5 144.5)" fill="#D9D9D9"/>
<circle cx="53.5" cy="144.5" r="1.5" transform="rotate(180 53.5 144.5)" fill="#D9D9D9"/>
<circle cx="66.5" cy="144.5" r="1.5" transform="rotate(180 66.5 144.5)" fill="#D9D9D9"/>
<circle cx="79.5" cy="144.5" r="1.5" transform="rotate(180 79.5 144.5)" fill="#D9D9D9"/>
<circle cx="92.5" cy="144.5" r="1.5" transform="rotate(180 92.5 144.5)" fill="#D9D9D9"/>
<circle cx="105.5" cy="144.5" r="1.5" transform="rotate(180 105.5 144.5)" fill="#D9D9D9"/>
<circle cx="118.5" cy="144.5" r="1.5" transform="rotate(180 118.5 144.5)" fill="#D9D9D9"/>
<circle cx="131.5" cy="144.5" r="1.5" transform="rotate(180 131.5 144.5)" fill="#D9D9D9"/>
<circle cx="144.5" cy="144.5" r="1.5" transform="rotate(180 144.5 144.5)" fill="#D9D9D9"/>
<circle cx="157.5" cy="144.5" r="1.5" transform="rotate(180 157.5 144.5)" fill="#D9D9D9"/>
<circle cx="170.5" cy="144.5" r="1.5" transform="rotate(180 170.5 144.5)" fill="#D9D9D9"/>
<circle cx="183.5" cy="144.5" r="1.5" transform="rotate(180 183.5 144.5)" fill="#D9D9D9"/>
<circle cx="196.5" cy="144.5" r="1.5" transform="rotate(180 196.5 144.5)" fill="#D9D9D9"/>
<circle cx="209.5" cy="144.5" r="1.5" transform="rotate(180 209.5 144.5)" fill="#D9D9D9"/>
<circle cx="222.5" cy="144.5" r="1.5" transform="rotate(180 222.5 144.5)" fill="#D9D9D9"/>
<circle cx="235.5" cy="144.5" r="1.5" transform="rotate(180 235.5 144.5)" fill="#D9D9D9"/>
<circle cx="1.5" cy="157.5" r="1.5" transform="rotate(180 1.5 157.5)" fill="#D9D9D9"/>
<circle cx="14.5" cy="157.5" r="1.5" transform="rotate(180 14.5 157.5)" fill="#D9D9D9"/>
<circle cx="27.5" cy="157.5" r="1.5" transform="rotate(180 27.5 157.5)" fill="#D9D9D9"/>
<circle cx="40.5" cy="157.5" r="1.5" transform="rotate(180 40.5 157.5)" fill="#D9D9D9"/>
<circle cx="53.5" cy="157.5" r="1.5" transform="rotate(180 53.5 157.5)" fill="#D9D9D9"/>
<circle cx="66.5" cy="157.5" r="1.5" transform="rotate(180 66.5 157.5)" fill="#D9D9D9"/>
<circle cx="79.5" cy="157.5" r="1.5" transform="rotate(180 79.5 157.5)" fill="#D9D9D9"/>
<circle cx="92.5" cy="157.5" r="1.5" transform="rotate(180 92.5 157.5)" fill="#D9D9D9"/>
<circle cx="105.5" cy="157.5" r="1.5" transform="rotate(180 105.5 157.5)" fill="#D9D9D9"/>
<circle cx="118.5" cy="157.5" r="1.5" transform="rotate(180 118.5 157.5)" fill="#D9D9D9"/>
<circle cx="131.5" cy="157.5" r="1.5" transform="rotate(180 131.5 157.5)" fill="#D9D9D9"/>
<circle cx="144.5" cy="157.5" r="1.5" transform="rotate(180 144.5 157.5)" fill="#D9D9D9"/>
<circle cx="157.5" cy="157.5" r="1.5" transform="rotate(180 157.5 157.5)" fill="#D9D9D9"/>
<circle cx="170.5" cy="157.5" r="1.5" transform="rotate(180 170.5 157.5)" fill="#D9D9D9"/>
<circle cx="183.5" cy="157.5" r="1.5" transform="rotate(180 183.5 157.5)" fill="#D9D9D9"/>
<circle cx="196.5" cy="157.5" r="1.5" transform="rotate(180 196.5 157.5)" fill="#D9D9D9"/>
<circle cx="209.5" cy="157.5" r="1.5" transform="rotate(180 209.5 157.5)" fill="#D9D9D9"/>
<circle cx="222.5" cy="157.5" r="1.5" transform="rotate(180 222.5 157.5)" fill="#D9D9D9"/>
<circle cx="235.5" cy="157.5" r="1.5" transform="rotate(180 235.5 157.5)" fill="#D9D9D9"/>
<circle cx="1.5" cy="170.5" r="1.5" transform="rotate(180 1.5 170.5)" fill="#D9D9D9"/>
<circle cx="14.5" cy="170.5" r="1.5" transform="rotate(180 14.5 170.5)" fill="#D9D9D9"/>
<circle cx="27.5" cy="170.5" r="1.5" transform="rotate(180 27.5 170.5)" fill="#D9D9D9"/>
<circle cx="40.5" cy="170.5" r="1.5" transform="rotate(180 40.5 170.5)" fill="#D9D9D9"/>
<circle cx="53.5" cy="170.5" r="1.5" transform="rotate(180 53.5 170.5)" fill="#D9D9D9"/>
<circle cx="66.5" cy="170.5" r="1.5" transform="rotate(180 66.5 170.5)" fill="#D9D9D9"/>
<circle cx="79.5" cy="170.5" r="1.5" transform="rotate(180 79.5 170.5)" fill="#D9D9D9"/>
<circle cx="92.5" cy="170.5" r="1.5" transform="rotate(180 92.5 170.5)" fill="#D9D9D9"/>
<circle cx="105.5" cy="170.5" r="1.5" transform="rotate(180 105.5 170.5)" fill="#D9D9D9"/>
<circle cx="118.5" cy="170.5" r="1.5" transform="rotate(180 118.5 170.5)" fill="#D9D9D9"/>
<circle cx="131.5" cy="170.5" r="1.5" transform="rotate(180 131.5 170.5)" fill="#D9D9D9"/>
<circle cx="144.5" cy="170.5" r="1.5" transform="rotate(180 144.5 170.5)" fill="#D9D9D9"/>
<circle cx="157.5" cy="170.5" r="1.5" transform="rotate(180 157.5 170.5)" fill="#D9D9D9"/>
<circle cx="170.5" cy="170.5" r="1.5" transform="rotate(180 170.5 170.5)" fill="#D9D9D9"/>
<circle cx="183.5" cy="170.5" r="1.5" transform="rotate(180 183.5 170.5)" fill="#D9D9D9"/>
<circle cx="196.5" cy="170.5" r="1.5" transform="rotate(180 196.5 170.5)" fill="#D9D9D9"/>
<circle cx="209.5" cy="170.5" r="1.5" transform="rotate(180 209.5 170.5)" fill="#D9D9D9"/>
<circle cx="222.5" cy="170.5" r="1.5" transform="rotate(180 222.5 170.5)" fill="#D9D9D9"/>
<circle cx="235.5" cy="170.5" r="1.5" transform="rotate(180 235.5 170.5)" fill="#D9D9D9"/>
<circle cx="1.5" cy="183.5" r="1.5" transform="rotate(180 1.5 183.5)" fill="#D9D9D9"/>
<circle cx="14.5" cy="183.5" r="1.5" transform="rotate(180 14.5 183.5)" fill="#D9D9D9"/>
<circle cx="27.5" cy="183.5" r="1.5" transform="rotate(180 27.5 183.5)" fill="#D9D9D9"/>
<circle cx="40.5" cy="183.5" r="1.5" transform="rotate(180 40.5 183.5)" fill="#D9D9D9"/>
<circle cx="53.5" cy="183.5" r="1.5" transform="rotate(180 53.5 183.5)" fill="#D9D9D9"/>
<circle cx="66.5" cy="183.5" r="1.5" transform="rotate(180 66.5 183.5)" fill="#D9D9D9"/>
<circle cx="79.5" cy="183.5" r="1.5" transform="rotate(180 79.5 183.5)" fill="#D9D9D9"/>
<circle cx="92.5" cy="183.5" r="1.5" transform="rotate(180 92.5 183.5)" fill="#D9D9D9"/>
<circle cx="105.5" cy="183.5" r="1.5" transform="rotate(180 105.5 183.5)" fill="#D9D9D9"/>
<circle cx="118.5" cy="183.5" r="1.5" transform="rotate(180 118.5 183.5)" fill="#D9D9D9"/>
<circle cx="131.5" cy="183.5" r="1.5" transform="rotate(180 131.5 183.5)" fill="#D9D9D9"/>
<circle cx="144.5" cy="183.5" r="1.5" transform="rotate(180 144.5 183.5)" fill="#D9D9D9"/>
<circle cx="157.5" cy="183.5" r="1.5" transform="rotate(180 157.5 183.5)" fill="#D9D9D9"/>
<circle cx="170.5" cy="183.5" r="1.5" transform="rotate(180 170.5 183.5)" fill="#D9D9D9"/>
<circle cx="183.5" cy="183.5" r="1.5" transform="rotate(180 183.5 183.5)" fill="#D9D9D9"/>
<circle cx="196.5" cy="183.5" r="1.5" transform="rotate(180 196.5 183.5)" fill="#D9D9D9"/>
<circle cx="209.5" cy="183.5" r="1.5" transform="rotate(180 209.5 183.5)" fill="#D9D9D9"/>
<circle cx="222.5" cy="183.5" r="1.5" transform="rotate(180 222.5 183.5)" fill="#D9D9D9"/>
<circle cx="235.5" cy="183.5" r="1.5" transform="rotate(180 235.5 183.5)" fill="#D9D9D9"/>
</g>
</svg>
