<svg width="56" height="56" viewBox="0 0 56 56" fill="none" xmlns="http://www.w3.org/2000/svg">
<path d="M37.3625 29.5226L38.2891 27.9274L37.2295 18.3663C36.7762 18.9508 36.3379 19.5467 35.875 20.1251L34.125 29.7501L32.375 22.7501L31.2664 24.0809C29.1042 26.6753 26.521 28.8875 23.625 30.6251L21.875 39.3751L20.125 32.3751L14.875 46.3751L12.25 45.5001L13.6832 49.7989C14.7232 49.395 15.7482 48.9537 16.7562 48.4759C25.3914 44.3988 32.5793 37.7875 37.3625 29.5226ZM47.7347 2.9873C44.9838 7.60257 41.9909 12.0693 38.7686 16.3687L39.7652 25.3313C43.6399 18.3756 46.333 10.825 47.7347 2.9873Z" fill="#FF6F61"/>
<path d="M38.8806 30.401C33.9181 38.9729 26.462 45.8295 17.5053 50.0579C16.6731 50.4517 15.8235 50.8165 14.9678 51.1639L20.125 53.375V51.625C26.9096 51.6251 33.4795 49.2466 38.6917 44.9033L41.125 42.875L35 42L43.75 39.375C45.6978 36.5881 47.4194 33.6498 48.8985 30.5883C45.7589 30.4719 42.6448 29.9774 39.6235 29.1157L38.8806 30.401ZM53.375 12.9597C53.3706 8.95308 52.0904 5.05201 49.7202 1.82178L49.49 3.12903C47.9862 11.6804 44.9831 19.8987 40.6193 27.405L40.5318 27.5555C43.4008 28.3411 46.3538 28.7797 49.3273 28.8619H49.6948C50.9336 26.1039 51.9743 23.2611 52.8089 20.3552L53.375 18.375L49 19.25L53.375 13.125V12.9597Z" fill="#FF6F61"/>
<path d="M13.6832 49.7988C12.611 50.2165 11.5272 50.5957 10.4317 50.9363L2.36768 53.4135L2.88218 55.0865L10.9462 52.605C12.3079 52.1825 13.6508 51.7017 14.9712 51.1638L13.9999 50.75L13.6832 49.7988Z" fill="#FF6F61"/>
</svg>
