<svg width="155" height="29" viewBox="0 0 155 29" fill="none" xmlns="http://www.w3.org/2000/svg">
<path d="M9.5708 6.80368L0 23.1832H10.6145L20.2426 1.39355L9.5708 6.80368Z" fill="#383838"/>
<path d="M21.7432 3.20703L16.2775 15.679L23.9471 25.4946H8.87085V27.6064H36L21.7432 3.20703Z" fill="#FF6F61"/>
<path d="M56.48 19.2V15.78H66.83C66.89 17.38 66.7 18.89 66.26 20.31C65.84 21.73 65.17 22.99 64.25 24.09C63.35 25.17 62.23 26.02 60.89 26.64C59.55 27.26 58.02 27.57 56.3 27.57C54.68 27.57 53.18 27.3 51.8 26.76C50.44 26.22 49.25 25.46 48.23 24.48C47.23 23.5 46.45 22.33 45.89 20.97C45.35 19.61 45.08 18.12 45.08 16.5C45.08 14.88 45.36 13.4 45.92 12.06C46.5 10.7 47.3 9.54 48.32 8.58C49.34 7.62 50.54 6.88 51.92 6.36C53.3 5.84 54.8 5.58 56.42 5.58C57.86 5.58 59.15 5.78 60.29 6.18C61.45 6.58 62.47 7.14 63.35 7.86C64.25 8.56 65.02 9.4 65.66 10.38L62 12.51C61.48 11.59 60.75 10.85 59.81 10.29C58.89 9.71 57.76 9.42 56.42 9.42C55.16 9.42 54.01 9.71 52.97 10.29C51.93 10.85 51.1 11.66 50.48 12.72C49.88 13.78 49.58 15.04 49.58 16.5C49.58 17.94 49.88 19.21 50.48 20.31C51.08 21.39 51.89 22.23 52.91 22.83C53.95 23.43 55.12 23.73 56.42 23.73C57.28 23.73 58.05 23.62 58.73 23.4C59.41 23.16 59.99 22.83 60.47 22.41C60.97 21.99 61.39 21.51 61.73 20.97C62.07 20.43 62.33 19.84 62.51 19.2H56.48ZM69.0427 20.1C69.0427 18.66 69.3727 17.4 70.0327 16.32C70.7127 15.24 71.6227 14.4 72.7627 13.8C73.9227 13.2 75.2327 12.9 76.6927 12.9C78.1527 12.9 79.4527 13.2 80.5927 13.8C81.7527 14.4 82.6627 15.24 83.3227 16.32C84.0027 17.4 84.3427 18.66 84.3427 20.1C84.3427 21.52 84.0027 22.78 83.3227 23.88C82.6627 24.96 81.7527 25.8 80.5927 26.4C79.4527 27 78.1527 27.3 76.6927 27.3C75.2327 27.3 73.9227 27 72.7627 26.4C71.6227 25.8 70.7127 24.96 70.0327 23.88C69.3727 22.78 69.0427 21.52 69.0427 20.1ZM73.0027 20.1C73.0027 20.88 73.1627 21.57 73.4827 22.17C73.8227 22.75 74.2727 23.21 74.8327 23.55C75.3927 23.87 76.0127 24.03 76.6927 24.03C77.3727 24.03 77.9927 23.87 78.5527 23.55C79.1127 23.21 79.5527 22.75 79.8727 22.17C80.2127 21.57 80.3827 20.88 80.3827 20.1C80.3827 19.32 80.2127 18.63 79.8727 18.03C79.5527 17.43 79.1127 16.97 78.5527 16.65C77.9927 16.33 77.3727 16.17 76.6927 16.17C76.0127 16.17 75.3927 16.33 74.8327 16.65C74.2727 16.97 73.8227 17.43 73.4827 18.03C73.1627 18.63 73.0027 19.32 73.0027 20.1Z" fill="#FF6F61"/>
<path d="M91.0679 16.5C91.0679 17.88 91.3779 19.09 91.9979 20.13C92.6379 21.15 93.4679 21.94 94.4879 22.5C95.5079 23.04 96.6179 23.31 97.8179 23.31C98.8179 23.31 99.7079 23.18 100.488 22.92C101.268 22.66 101.968 22.31 102.588 21.87C103.228 21.43 103.778 20.95 104.238 20.43V25.26C103.378 25.94 102.438 26.47 101.418 26.85C100.418 27.23 99.1479 27.42 97.6079 27.42C96.0079 27.42 94.5179 27.16 93.1379 26.64C91.7779 26.12 90.5879 25.37 89.5679 24.39C88.5679 23.41 87.7879 22.26 87.2279 20.94C86.6879 19.6 86.4179 18.12 86.4179 16.5C86.4179 14.88 86.6879 13.41 87.2279 12.09C87.7879 10.75 88.5679 9.59 89.5679 8.61C90.5879 7.63 91.7779 6.88 93.1379 6.36C94.5179 5.84 96.0079 5.58 97.6079 5.58C99.1479 5.58 100.418 5.77 101.418 6.15C102.438 6.53 103.378 7.06 104.238 7.74V12.57C103.778 12.05 103.228 11.57 102.588 11.13C101.968 10.69 101.268 10.34 100.488 10.08C99.7079 9.82 98.8179 9.69 97.8179 9.69C96.6179 9.69 95.5079 9.97 94.4879 10.53C93.4679 11.07 92.6379 11.85 91.9979 12.87C91.3779 13.89 91.0679 15.1 91.0679 16.5ZM112.047 3.6V27H108.147V3.6H112.047ZM117.057 18.6C117.057 17.68 116.877 16.98 116.517 16.5C116.177 16.02 115.597 15.78 114.777 15.78C114.237 15.78 113.757 15.9 113.337 16.14C112.917 16.36 112.597 16.68 112.377 17.1C112.157 17.52 112.047 18.02 112.047 18.6H111.267C111.267 17.5 111.447 16.51 111.807 15.63C112.187 14.75 112.747 14.05 113.487 13.53C114.227 13.01 115.137 12.75 116.217 12.75C117.297 12.75 118.187 12.95 118.887 13.35C119.587 13.75 120.107 14.35 120.447 15.15C120.787 15.93 120.957 16.89 120.957 18.03V27H117.057V18.6ZM127.547 22.71C127.547 23.11 127.647 23.46 127.847 23.76C128.047 24.04 128.317 24.26 128.657 24.42C129.017 24.56 129.407 24.63 129.827 24.63C130.427 24.63 130.967 24.51 131.447 24.27C131.927 24.01 132.317 23.65 132.617 23.19C132.917 22.71 133.067 22.14 133.067 21.48L133.547 23.28C133.547 24.16 133.297 24.9 132.797 25.5C132.317 26.1 131.687 26.55 130.907 26.85C130.147 27.15 129.347 27.3 128.507 27.3C127.647 27.3 126.847 27.13 126.107 26.79C125.367 26.45 124.767 25.96 124.307 25.32C123.867 24.66 123.647 23.86 123.647 22.92C123.647 21.58 124.117 20.52 125.057 19.74C125.997 18.96 127.327 18.57 129.047 18.57C129.927 18.57 130.697 18.66 131.357 18.84C132.037 19.02 132.607 19.24 133.067 19.5C133.527 19.76 133.857 20.01 134.057 20.25V22.05C133.517 21.65 132.907 21.35 132.227 21.15C131.567 20.95 130.867 20.85 130.127 20.85C129.527 20.85 129.037 20.93 128.657 21.09C128.277 21.23 127.997 21.44 127.817 21.72C127.637 21.98 127.547 22.31 127.547 22.71ZM126.047 17.1L124.607 14.46C125.327 14.08 126.207 13.72 127.247 13.38C128.287 13.02 129.447 12.84 130.727 12.84C131.907 12.84 132.957 13.01 133.877 13.35C134.797 13.69 135.517 14.19 136.037 14.85C136.557 15.49 136.817 16.28 136.817 17.22V27H133.067V18.03C133.067 17.65 133.007 17.33 132.887 17.07C132.767 16.79 132.577 16.56 132.317 16.38C132.077 16.2 131.787 16.07 131.447 15.99C131.107 15.91 130.727 15.87 130.307 15.87C129.667 15.87 129.057 15.94 128.477 16.08C127.897 16.22 127.397 16.39 126.977 16.59C126.557 16.79 126.247 16.96 126.047 17.1ZM140.432 3.6H144.332V27H140.432V3.6ZM147.986 7.86C147.986 7.22 148.216 6.7 148.676 6.3C149.136 5.88 149.686 5.67 150.326 5.67C150.966 5.67 151.506 5.88 151.946 6.3C152.406 6.7 152.636 7.22 152.636 7.86C152.636 8.48 152.406 9 151.946 9.42C151.506 9.84 150.966 10.05 150.326 10.05C149.686 10.05 149.136 9.84 148.676 9.42C148.216 9 147.986 8.48 147.986 7.86ZM148.406 13.2H152.186V27H148.406V13.2Z" fill="#383838"/>
</svg>
